<?xml version="1.0" standalone="no"?><!DOCTYPE svg PUBLIC "-//W3C//DTD SVG 1.1//EN" "http://www.w3.org/Graphics/SVG/1.1/DTD/svg11.dtd"><svg class="icon" width="200px" height="200.00px" viewBox="0 0 1024 1024" version="1.1" xmlns="http://www.w3.org/2000/svg"><path d="M553.29 869.34a72 72 0 0 1-51.77-21.65l-325-330.82a74.32 74.32 0 0 1-21.1-54l7-240.65a60.3 60.3 0 0 1 58.18-58.41l246.71-8.17a74.1 74.1 0 0 1 55.22 22l324.65 330.48a72 72 0 0 1 20.72 52.17 73.49 73.49 0 0 1-22.16 51.38L605.08 848.09a73.5 73.5 0 0 1-51.76 21.25zM230.2 231.54l-6.8 233.32a5.92 5.92 0 0 0 1.64 4.36L550 800a4.39 4.39 0 0 0 3.26 1.31 5.82 5.82 0 0 0 4.13-1.75l240.7-236.4a5.84 5.84 0 0 0 1.83-4.1 4.44 4.44 0 0 0-1.25-3.29L474.05 225.33a5.94 5.94 0 0 0-4.47-1.72zM379.37 459.54A89.59 89.59 0 1 1 469 370a89.69 89.69 0 0 1-89.63 89.54z m0-111.17A21.59 21.59 0 1 0 401 370a21.6 21.6 0 0 0-21.63-21.63z" /></svg>